<mxfile host="app.diagrams.net" modified="2023-09-11T07:09:12.815Z" agent="Mozilla/5.0 (Windows NT 10.0; Win64; x64) AppleWebKit/537.36 (KHTML, like Gecko) Chrome/116.0.0.0 Safari/537.36" version="21.7.4" etag="3h8pIxuTR9IfeFo4pUr-" type="github">
  <diagram name="Page-1" id="PljxQ3hTfiYyWTRbuTq4">
    <mxGraphModel>
      <root>
        <mxCell id="0" />
        <mxCell id="1" parent="0" />
      </root>
    </mxGraphModel>
  </diagram>
</mxfile>
